<svg xmlns="http://www.w3.org/2000/svg" width="146.73724" height="204.8423" viewBox="0 0 146.73724 204.8423"><defs><style>.cls-1{fill:#ccd0d6;}</style></defs><g id="Layer_2" data-name="Layer 2"><g id="Layer_1-2" data-name="Layer 1"><polygon class="cls-1" points="146.737 204.842 73.369 156.078 0 204.842 0 0 146.737 0 146.737 204.842"/><path d="M43.91653,110.21269a18.09592,18.09592,0,0,1-7.47949-1.45752,12.01063,12.01063,0,0,1-5.11524-4.17993A11.71612,11.71612,0,0,1,29.397,97.9478h7.4248a6.56559,6.56559,0,0,0,1.95215,4.5376,6.87363,6.87363,0,0,0,5.08789,1.84228,6.83253,6.83253,0,0,0,4.45508-1.34741,4.41308,4.41308,0,0,0,1.64941-3.60254,4.72275,4.72275,0,0,0-1.457-3.68506,10.98465,10.98465,0,0,0-3.87793-2.14477q-2.41992-.82507-5.16992-1.76a17.00194,17.00194,0,0,1-6.792-3.96021,8.86446,8.86446,0,0,1-2.33789-6.43481,9.80841,9.80841,0,0,1,1.623-5.85767,11.05093,11.05093,0,0,1,4.59179-3.79492,15.83757,15.83757,0,0,1,6.71-1.34741,15.88951,15.88951,0,0,1,6.793,1.375,11.14,11.14,0,0,1,4.62012,3.84985,10.88675,10.88675,0,0,1,1.78711,5.885H48.92141A5.2575,5.2575,0,0,0,47.354,77.90019a5.574,5.574,0,0,0-4.207-1.56738,6.01067,6.01067,0,0,0-3.87793,1.12744,4.04286,4.04286,0,0,0-1.56738,3.4375,3.96831,3.96831,0,0,0,1.21,3.05249,9.70177,9.70177,0,0,0,3.2998,1.89746q2.09034.77088,4.78516,1.65015a32.59029,32.59029,0,0,1,5.22558,2.30981,10.73138,10.73138,0,0,1,3.79493,3.49268,9.97572,9.97572,0,0,1,1.42968,5.58252,10.76694,10.76694,0,0,1-1.54,5.60986,11.07772,11.07772,0,0,1-4.56543,4.15259A15.99742,15.99742,0,0,1,43.91653,110.21269Z"/><path d="M61.24075,109.55278V69.95268h7.04v39.6001Z"/><path d="M80.65579,109.55278l-10.01074-27.28h7.37011l6.93067,20.625,6.92968-20.625h7.37012l-10.06543,27.28Z"/><path d="M101.50051,109.55278v-27.28h6.26954l.66015,5.115a11.4185,11.4185,0,0,1,4.043-4.20752,11.29475,11.29475,0,0,1,6.02246-1.56738v7.425h-1.98047a11.19636,11.19636,0,0,0-4.125.71484,5.55653,5.55653,0,0,0-2.832,2.4751,9.81736,9.81736,0,0,0-1.01758,4.895v12.42993Z"/></g></g></svg>