<svg xmlns="http://www.w3.org/2000/svg" width="146.73724" height="204.8423" viewBox="0 0 146.73724 204.8423"><defs><style>.cls-1{fill:#0af;}</style></defs><g id="Layer_2" data-name="Layer 2"><g id="Layer_1-2" data-name="Layer 1"><polygon class="cls-1" points="146.737 204.842 73.369 156.078 0 204.842 0 0 146.737 0 146.737 204.842"/><path d="M26.04057,109.55278l-10.1748-38.5h7.53516l6.92968,30.635,8.14063-30.635h7.75488l7.91992,30.635,6.92969-30.635h7.58984l-10.45019,38.5H49.856L42.2105,81.00786l-7.86426,28.54492Z"/><path d="M70.92143,109.55278v-27.28h6.21485l.5498,4.62012a9.59428,9.59428,0,0,1,3.65723-3.8501A10.78423,10.78423,0,0,1,86.981,81.61284a9.92425,9.92425,0,0,1,7.86524,3.18994q2.80517,3.19043,2.80469,9.3501v15.3999h-7.04v-14.74A8.74167,8.74167,0,0,0,89.1812,89.4229a5.25369,5.25369,0,0,0-4.45508-1.87012,6.27889,6.27889,0,0,0-4.86719,2.09009,8.35769,8.35769,0,0,0-1.89746,5.82983v14.08008Z"/><path d="M114.70073,110.21269a12.80668,12.80668,0,0,1-6.875-1.86987,13.37975,13.37975,0,0,1-4.78516-5.115,15.202,15.202,0,0,1-1.75976-7.37012,15.0438,15.0438,0,0,1,1.75976-7.34253,13.23488,13.23488,0,0,1,4.78516-5.05981,12.94932,12.94932,0,0,1,6.875-1.84253,11.90806,11.90806,0,0,1,5.38965,1.155,9.72334,9.72334,0,0,1,3.74023,3.24487V69.95268h7.04v39.6001h-6.27051l-.76953-3.905a12.53219,12.53219,0,0,1-3.49218,3.18994A10.40216,10.40216,0,0,1,114.70073,110.21269Zm1.48437-6.15991a7.36665,7.36665,0,0,0,5.583-2.28247,8.98178,8.98178,0,0,0,0-11.71509,7.96894,7.96894,0,0,0-11.13769-.02734,7.99736,7.99736,0,0,0-2.2002,5.82983,8.18661,8.18661,0,0,0,2.2002,5.885A7.3432,7.3432,0,0,0,116.1851,104.05278Z"/></g></g></svg>