<svg xmlns="http://www.w3.org/2000/svg" width="146.73724" height="204.8423" viewBox="0 0 146.73724 204.8423"><defs><style>.cls-1{fill:#ff0037;}</style></defs><g id="Layer_2" data-name="Layer 2"><g id="Layer_1-2" data-name="Layer 1"><polygon class="cls-1" points="146.737 204.842 73.369 156.078 0 204.842 0 0 146.737 0 146.737 204.842"/><path d="M36.849,109.55278v-38.5H61.70837v5.665H43.889v10.78H58.29919v5.55493H43.889v16.5Z"/><path d="M68.19861,121.65288l6.32422-13.915H72.87341L62.25818,82.27275h7.64551l7.64453,19.19507,7.97461-19.19507h7.48046L75.6781,121.65288Z"/><path d="M95.42322,109.55278v-27.28h6.26953l.66015,5.115a11.4185,11.4185,0,0,1,4.043-4.20752,11.29477,11.29477,0,0,1,6.02246-1.56738v7.425h-1.98047a11.19643,11.19643,0,0,0-4.125.71484,5.55653,5.55653,0,0,0-2.832,2.4751,9.81748,9.81748,0,0,0-1.01757,4.895v12.42993Z"/></g></g></svg>