<svg xmlns="http://www.w3.org/2000/svg" width="146.73724" height="204.8423" viewBox="0 0 146.73724 204.8423"><defs><style>.cls-1{fill:#a89060;}</style></defs><g id="Layer_2" data-name="Layer 2"><g id="Layer_1-2" data-name="Layer 1"><polygon class="cls-1" points="146.737 204.842 73.369 156.078 0 204.842 0 0 146.737 0 146.737 204.842"/><path d="M50.244,110.21269a17.9526,17.9526,0,0,1-9.51563-2.47485,16.81433,16.81433,0,0,1-6.32422-6.90259,22.42126,22.42126,0,0,1-2.25586-10.3125,22.56128,22.56128,0,0,1,2.33789-10.47754,17.24849,17.24849,0,0,1,6.65528-7.095,19.75921,19.75921,0,0,1,10.25683-2.55737A18.56429,18.56429,0,0,1,62.619,73.63774a14.79749,14.79749,0,0,1,5.77441,8.96509H60.52915a7.76012,7.76012,0,0,0-3.19043-4.20752,10.65936,10.65936,0,0,0-5.94043-1.51245q-5.77442,0-8.90918,3.65747-3.13623,3.65844-3.13574,10.03735,0,6.38087,3.10742,9.87256a10.72624,10.72624,0,0,0,8.44336,3.49243q5.22365,0,7.8916-2.83227a12.72657,12.72657,0,0,0,3.21778-7.45264H52.27915v-5.28h16.8291v21.17505H62.619l-.55078-5.06006a12.89279,12.89279,0,0,1-4.67481,4.23511A15.211,15.211,0,0,1,50.244,110.21269Z"/><path d="M73.56333,109.55278V69.95268h7.04v39.6001Z"/><path d="M98.14829,110.21269a12.80671,12.80671,0,0,1-6.875-1.86987,13.37973,13.37973,0,0,1-4.78515-5.115,15.20186,15.20186,0,0,1-1.75977-7.37012,15.04369,15.04369,0,0,1,1.75977-7.34253,13.23485,13.23485,0,0,1,4.78515-5.05981,12.94934,12.94934,0,0,1,6.875-1.84253,11.908,11.908,0,0,1,5.38965,1.155,9.72337,9.72337,0,0,1,3.74024,3.24487V69.95268h7.04v39.6001h-6.27051l-.76953-3.905a12.53237,12.53237,0,0,1-3.49219,3.18994A10.40216,10.40216,0,0,1,98.14829,110.21269Zm1.48438-6.15991a7.36665,7.36665,0,0,0,5.583-2.28247,8.98178,8.98178,0,0,0,0-11.71509,7.969,7.969,0,0,0-11.1377-.02734,7.99736,7.99736,0,0,0-2.20019,5.82983,8.1866,8.1866,0,0,0,2.20019,5.885A7.34321,7.34321,0,0,0,99.63267,104.05278Z"/></g></g></svg>