<svg xmlns="http://www.w3.org/2000/svg" width="146.73724" height="204.8423" viewBox="0 0 146.73724 204.8423"><defs><style>.cls-1{fill:#fff;}</style></defs><g id="Layer_2" data-name="Layer 2"><g id="Layer_1-2" data-name="Layer 1"><polygon points="146.737 204.842 73.369 156.078 0 204.842 0 0 146.737 0 146.737 204.842"/><path class="cls-1" d="M33.13662,109.08647A19.12647,19.12647,0,0,1,23.12685,106.584a16.68841,16.68841,0,0,1-6.43457-6.98486,22.76449,22.76449,0,0,1-2.25586-10.36768,22.9414,22.9414,0,0,1,2.25586-10.395,16.84014,16.84014,0,0,1,6.43457-7.03979,18.97293,18.97293,0,0,1,10.00977-2.53q6.93016,0,11.35742,3.4375a15.01563,15.01563,0,0,1,5.52734,9.65234H42.2665a8.2888,8.2888,0,0,0-3.05176-4.92236,9.92958,9.92958,0,0,0-6.1875-1.7876,10.29009,10.29009,0,0,0-8.36035,3.63013q-3.0249,3.62988-3.02539,9.95483,0,6.32556,3.02539,9.92749a10.32417,10.32417,0,0,0,8.36035,3.60254,10.39073,10.39073,0,0,0,6.1875-1.67749,7.74,7.74,0,0,0,3.05176-4.64746h7.75488a14.50074,14.50074,0,0,1-5.52734,9.29492Q40.06582,109.08708,33.13662,109.08647Z"/><path class="cls-1" d="M53.872,108.42656v-27.28H60.1415l.66015,5.115a11.41858,11.41858,0,0,1,4.043-4.20752,11.29477,11.29477,0,0,1,6.02246-1.56738v7.425H68.88662a11.19636,11.19636,0,0,0-4.125.71484,5.55651,5.55651,0,0,0-2.832,2.4751,9.81748,9.81748,0,0,0-1.01757,4.895v12.42993Z"/><path class="cls-1" d="M90.72158,109.08647a11.90225,11.90225,0,0,1-5.38965-1.155,9.70825,9.70825,0,0,1-3.74024-3.24487l-.7705,3.74H74.55165V68.82646h7.04v16.2251a12.51982,12.51982,0,0,1,3.49219-3.18994,10.39753,10.39753,0,0,1,5.6377-1.375,12.81151,12.81151,0,0,1,6.875,1.86987,13.41421,13.41421,0,0,1,4.78515,5.115,15.21551,15.21551,0,0,1,1.75977,7.37012,15.0545,15.0545,0,0,1-1.75977,7.34253,13.25145,13.25145,0,0,1-4.78515,5.05981A12.952,12.952,0,0,1,90.72158,109.08647Zm-1.48536-6.15991a7.43547,7.43547,0,0,0,5.55567-2.25488,7.99893,7.99893,0,0,0,2.19922-5.83008,8.19167,8.19167,0,0,0-2.19922-5.885,7.90083,7.90083,0,0,0-11.1377-.02759,8.98178,8.98178,0,0,0,0,11.71509A7.363,7.363,0,0,0,89.23622,102.92656Z"/><path class="cls-1" d="M107.11122,108.42656v-27.28h6.21485l.5498,4.62012a9.59435,9.59435,0,0,1,3.65723-3.8501,10.78414,10.78414,0,0,1,5.6377-1.42993,9.92424,9.92424,0,0,1,7.86523,3.18994q2.80518,3.19043,2.80469,9.3501v15.3999h-7.04v-14.74a8.7416,8.7416,0,0,0-1.42969-5.38989,5.25369,5.25369,0,0,0-4.45508-1.87012,6.27889,6.27889,0,0,0-4.86719,2.09009,8.35769,8.35769,0,0,0-1.89746,5.82983v14.08008Z"/></g></g></svg>