<svg xmlns="http://www.w3.org/2000/svg" width="146.73724" height="204.8423" viewBox="0 0 146.73724 204.8423">
    <defs>
        <style>.cls-1{fill:#a57560;}</style>
    </defs>
    <g id="Layer_2" data-name="Layer 2">
        <g id="Layer_1-2" data-name="Layer 1">
            <polygon class="cls-1" points="146.737 204.842 73.369 156.078 0 204.842 0 0 146.737 0 146.737 204.842" />
            <path d="M22.27461,109.55278v-38.5H37.72969q5.99414,0,9.15722,2.77759A9.051,9.051,0,0,1,50.049,80.95268a8.35765,8.35765,0,0,1-1.95214,5.80249,9.73357,9.73357,0,0,1-4.75782,2.94263,9.18107,9.18107,0,0,1,5.44532,3.27246,9.29453,9.29453,0,0,1,2.14453,6.07764,9.69294,9.69294,0,0,1-3.29981,7.53491q-3.30028,2.97-9.34961,2.97Zm7.04-22.33008h7.37012a6.78818,6.78818,0,0,0,4.56445-1.375,5.51159,5.51159,0,0,0,.02734-7.72754,6.86391,6.86391,0,0,0-4.70215-1.40234H29.31465Zm0,16.61011h7.86426a7.34557,7.34557,0,0,0,4.86816-1.45752,5.05839,5.05839,0,0,0,1.73242-4.09741,5.26,5.26,0,0,0-1.81543-4.23511,7.32067,7.32067,0,0,0-4.89453-1.54H29.31465Z" />
            <path d="M54.61445,109.55278v-27.28H60.884l.66016,5.115a11.4185,11.4185,0,0,1,4.043-4.20752,11.29475,11.29475,0,0,1,6.02246-1.56738v7.425H69.6291a11.19636,11.19636,0,0,0-4.125.71484,5.55649,5.55649,0,0,0-2.832,2.4751,9.81736,9.81736,0,0,0-1.01758,4.895v12.42993Z" />
            <path d="M74.19453,109.55278v-27.28h6.21485l.5498,4.62012a9.59428,9.59428,0,0,1,3.65723-3.8501,10.78423,10.78423,0,0,1,5.63769-1.42993,9.92425,9.92425,0,0,1,7.86524,3.18994q2.80517,3.19043,2.80468,9.3501v15.3999h-7.04v-14.74A8.74167,8.74167,0,0,0,92.4543,89.4229a5.25369,5.25369,0,0,0-4.45508-1.87012A6.27889,6.27889,0,0,0,83.132,89.64287a8.35769,8.35769,0,0,0-1.89746,5.82983v14.08008Z" />
            <path d="M103.674,109.55278v-5.665l13.915-15.78491h-13.75V82.27275h21.7793v5.665L111.48359,103.7227h14.41016v5.83008Z" />
        </g>
    </g>
</svg>