<svg xmlns="http://www.w3.org/2000/svg" width="146.73724" height="204.8423" viewBox="0 0 146.73724 204.8423"><defs><style>.cls-1{fill:#ffc7c7;}</style></defs><g id="Layer_2" data-name="Layer 2"><g id="Layer_1-2" data-name="Layer 1"><polygon class="cls-1" points="146.737 204.842 73.369 156.078 0 204.842 0 0 146.737 0 146.737 204.842"/><path d="M25.54758,109.55278v-38.5H50.68234v5.665H32.58762V87.27788H49.032v5.5H32.58762v11.10986H50.68234v5.665Z"/><path d="M54.97141,109.55278v-27.28h6.26953l.66015,5.115a11.41858,11.41858,0,0,1,4.043-4.20752,11.29477,11.29477,0,0,1,6.02246-1.56738v7.425H69.98606a11.19636,11.19636,0,0,0-4.125.71484,5.55651,5.55651,0,0,0-2.832,2.4751,9.81748,9.81748,0,0,0-1.01757,4.895v12.42993Z"/><path d="M88.907,109.55278a10.60174,10.60174,0,0,1-6.875-2.09009q-2.58692-2.08959-2.58593-7.4248V88.15776H74.77121v-5.885H79.446l.82519-7.31494h6.21485v7.31494h7.37011v5.885H86.48606v11.93506a3.50326,3.50326,0,0,0,.85253,2.72241,4.51076,4.51076,0,0,0,2.94336.74243h3.40918v5.99512Z"/><path d="M97.70578,109.55278V69.95268h7.04v16.5a9.85365,9.85365,0,0,1,3.71192-3.54736,10.9052,10.9052,0,0,1,5.36328-1.29248,9.83753,9.83753,0,0,1,7.83691,3.18994q2.77734,3.19043,2.77734,9.3501v15.3999H117.4509v-14.74a8.87048,8.87048,0,0,0-1.40234-5.38989,5.17716,5.17716,0,0,0-4.42774-1.87012,6.449,6.449,0,0,0-4.92285,2.09009,8.21057,8.21057,0,0,0-1.95215,5.82983v14.08008Z"/></g></g></svg>