<svg xmlns="http://www.w3.org/2000/svg" width="238.57165" height="134.72317" viewBox="0 0 238.57165 134.72317">
    <defs>
        <style>.cls-1{fill:#1d1d1b;}</style>
    </defs>
    <g id="Layer_2" data-name="Layer 2">
        <g id="Layer_1-2" data-name="Layer 1">
            <path class="cls-1" d="M124.7181,0a67.36159,67.36159,0,1,0,67.36062,67.36062A67.436,67.436,0,0,0,124.7181,0Zm44.76615,31.33441c-.757,3.31523-3.95338,6.67789-9.04992,9.553-2.64169-10.344-6.80116-19.22856-12.03735-25.90224A57.8122,57.8122,0,0,1,169.48425,31.33441ZM153.77377,67.36062a98.10868,98.10868,0,0,1-2.38551,21.69762A117.5957,117.5957,0,0,1,129.649,92.05987V58.40255a95.23664,95.23664,0,0,0,23.31966-3.74488A100.96939,100.96939,0,0,1,153.77377,67.36062Zm-58.11134,0A100.96478,100.96478,0,0,1,96.46755,54.658a95.24294,95.24294,0,0,0,23.31966,3.74451V92.06842a112.41193,112.41193,0,0,1-21.70556-2.86969A98.04748,98.04748,0,0,1,95.66243,67.36062Zm24.12478-54.85089V48.53427a83.87882,83.87882,0,0,1-21.53992-3.699C102.192,28.28522,110.27309,15.78175,119.78721,12.50973Zm0,89.42517v20.27854c-7.46568-2.568-14.05016-10.81594-18.44655-22.24957A126.57062,126.57062,0,0,0,119.78721,101.9349Zm9.86178,20.27854V101.9349a126.57062,126.57062,0,0,0,18.44655-1.971C143.69915,111.3975,137.11467,119.64543,129.649,122.21344Zm0-73.67917V12.50973c9.51412,3.272,17.5952,15.77537,21.53992,32.32528A83.87079,83.87079,0,0,1,129.649,48.53427Zm-28.60977-33.5491C95.803,21.65909,91.64356,30.54373,89.00187,40.888,83.90437,38.01338,80.708,34.6512,79.95,31.33645A57.81783,57.81783,0,0,1,101.03922,14.98517ZM73.75751,40.77858c2.94409,3.951,7.46857,7.41837,13.22,10.21523a112.54689,112.54689,0,0,0-1.17687,16.36681A111.39087,111.39087,0,0,0,87.329,85.89626C74.71961,81.01183,67.21926,73.974,67.21926,67.36062A57.126,57.126,0,0,1,73.75751,40.77858Zm-2.39514,47.973a71.07527,71.07527,0,0,0,18.56982,8.44572,67.8095,67.8095,0,0,0,11.108,22.541A57.8157,57.8157,0,0,1,71.36237,88.75162ZM148.396,119.73836a67.8095,67.8095,0,0,0,11.108-22.541,71.07527,71.07527,0,0,0,18.56982-8.44572A57.8157,57.8157,0,0,1,148.396,119.73836Zm13.72079-33.899a111.47591,111.47591,0,0,0,1.51875-18.47869,112.41888,112.41888,0,0,0-1.17783-16.36753c5.75239-2.7971,10.27687-6.26474,13.22-10.21595a57.12021,57.12021,0,0,1,6.53921,26.58348C182.21694,75.00905,173.91821,81.44051,162.11681,85.83931Z" />
            <polygon class="cls-1" points="33.557 84.433 29.492 57.588 19.425 57.588 15.29 84.386 11.957 57.588 0 57.588 6.05 91.003 20.015 91.003 23.443 72.098 27.223 91.003 40.079 91.003 45.372 57.588 37.053 57.588 33.557 84.433" />
            <path class="cls-1" d="M229.7336,57.24567V74.78008a40.90522,40.90522,0,0,1-.18876,4.15875,10.90223,10.90223,0,0,1-.72134,3.08422,4.27724,4.27724,0,0,1-1.4889,1.92577,4.342,4.342,0,0,1-2.51649.66186,4.02113,4.02113,0,0,1-2.36336-.66186,4.55426,4.55426,0,0,1-1.512-1.92577,11.00011,11.00011,0,0,1-.8032-3.08422,32.51455,32.51455,0,0,1-.23691-4.15875V57.24567h-10.586V74.7324a23.11952,23.11952,0,0,0,1.03914,7.30221,13.70211,13.70211,0,0,0,3.00092,5.18718,12.30271,12.30271,0,0,0,4.76235,3.09578,18.2572,18.2572,0,0,0,6.32156,1.02795,17.77356,17.77356,0,0,0,6.34467-1.0164,10.5325,10.5325,0,0,0,4.39543-3.08373,13.20239,13.20239,0,0,0,2.56368-5.18731,28.80268,28.80268,0,0,0,.82728-7.32568V57.24567Z" />
        </g>
    </g>
</svg>