<svg xmlns="http://www.w3.org/2000/svg" width="384.129" height="131.281">
    <defs>
        <style>.cls-1{fill:#000000}</style>
    </defs>
    <g id="Layer_2" data-name="Layer 2">
        <g id="Layer_1-2" data-name="Layer 1">
            <path class="cls-1" d="m176.225 64.34 4.662-25.725 5.144 25.725h17.493l7.204-45.468h-11.32L194.649 55.4l-5.53-36.528H175.42l-5.627 36.465-4.534-36.465h-16.271l8.232 45.468h19.005zM214.453 53.102a21.227 21.227 0 0 0 2.862 4.855 17.17 17.17 0 0 0 4.277 3.858 21.125 21.125 0 0 0 5.836 2.541 31.43 31.43 0 0 0 15.065 0 20.846 20.846 0 0 0 5.836-2.54 17.578 17.578 0 0 0 4.277-3.859 20.973 20.973 0 0 0 2.878-4.855 25.64 25.64 0 0 0 1.624-5.515 33.67 33.67 0 0 0 .514-5.885 28.495 28.495 0 0 0-.61-5.868 25.172 25.172 0 0 0-1.85-5.547 22.868 22.868 0 0 0-3.102-4.888 19.346 19.346 0 0 0-4.39-3.89 21.547 21.547 0 0 0-5.691-2.573 26.958 26.958 0 0 0-14.052 0 21.273 21.273 0 0 0-5.676 2.573 19.492 19.492 0 0 0-4.373 3.89 22.39 22.39 0 0 0-3.087 4.888 25.652 25.652 0 0 0-1.833 5.547 28.496 28.496 0 0 0-.611 5.868 34.536 34.536 0 0 0 .499 5.885 24.961 24.961 0 0 0 1.607 5.515Zm12.862-18.007a14.454 14.454 0 0 1 1.609-4.502 6.85 6.85 0 0 1 2.572-2.59 6.996 6.996 0 0 1 9.518 2.59 13.937 13.937 0 0 1 1.64 4.502 33.53 33.53 0 0 1 .563 6.607 33.285 33.285 0 0 1-.563 6.592 13.734 13.734 0 0 1-1.64 4.47 6.844 6.844 0 0 1-2.605 2.54 7.835 7.835 0 0 1-6.913 0 6.627 6.627 0 0 1-2.572-2.54 14.24 14.24 0 0 1-1.609-4.47 33.211 33.211 0 0 1-.562-6.592 33.455 33.455 0 0 1 .562-6.607ZM282.307 57.346q1.447 3.876 2.829 6.994H301.6q-1.446-2.315-2.958-4.791-1.512-2.476-2.83-4.791-1.319-2.316-2.315-4.309a22.989 22.989 0 0 1-1.415-3.344 14.574 14.574 0 0 0 4.711-2.364 11.766 11.766 0 0 0 2.91-3.28 12.616 12.616 0 0 0 1.479-3.858 20.573 20.573 0 0 0 .418-4.132 12.154 12.154 0 0 0-1.254-5.29 14.098 14.098 0 0 0-3.714-4.695 19.05 19.05 0 0 0-6.158-3.344 26.31 26.31 0 0 0-8.553-1.27H261.47V64.34h14.405V48.905h4.116a51.743 51.743 0 0 0 2.316 8.44Zm-6.432-15.644V26.268h2.412a17.574 17.574 0 0 1 3.44.32 6.908 6.908 0 0 1 2.83 1.24 6.188 6.188 0 0 1 1.93 2.524 10.38 10.38 0 0 1 .707 4.147 7.512 7.512 0 0 1-.466 2.573 6.089 6.089 0 0 1-1.528 2.315 7.951 7.951 0 0 1-2.749 1.673 11.661 11.661 0 0 1-4.132.642ZM335.166 55.079H319.73V18.872h-14.405V64.34h29.841v-9.261zM361.538 63.825a27.197 27.197 0 0 0 6.03-1.655 21.521 21.521 0 0 0 5.096-2.927 16.84 16.84 0 0 0 3.923-4.356 21.057 21.057 0 0 0 2.508-5.966 30.58 30.58 0 0 0 .884-7.701 25.884 25.884 0 0 0-1.72-9.856 18.103 18.103 0 0 0-4.952-6.977 20.946 20.946 0 0 0-7.895-4.149 37.368 37.368 0 0 0-10.515-1.366h-15.82V64.34h15.692a42.948 42.948 0 0 0 6.77-.515Zm-8.056-9.775V28.26h1.254a15.63 15.63 0 0 1 4.631.629 7.615 7.615 0 0 1 3.408 2.122 9.651 9.651 0 0 1 2.091 3.987 23.213 23.213 0 0 1 .707 6.222 22.71 22.71 0 0 1-.788 6.624 8.9 8.9 0 0 1-2.25 3.891 7.403 7.403 0 0 1-3.521 1.849 20.719 20.719 0 0 1-4.567.466ZM178.602 94.58a55.514 55.514 0 0 1-.257 5.66 14.833 14.833 0 0 1-.982 4.196 5.815 5.815 0 0 1-2.025 2.62 5.906 5.906 0 0 1-3.425.901 5.47 5.47 0 0 1-3.216-.9 6.188 6.188 0 0 1-2.057-2.621 14.986 14.986 0 0 1-1.093-4.197 44.263 44.263 0 0 1-.322-5.659V70.72h-14.406v23.796a31.443 31.443 0 0 0 1.415 9.936 18.633 18.633 0 0 0 4.083 7.058 16.74 16.74 0 0 0 6.48 4.213 24.836 24.836 0 0 0 8.601 1.398 24.183 24.183 0 0 0 8.634-1.383 14.33 14.33 0 0 0 5.982-4.196 17.966 17.966 0 0 0 3.489-7.058 39.182 39.182 0 0 0 1.125-9.968V70.72h-12.026ZM194.077 81.203h10.29v34.985h14.406V81.203h10.515V70.721h-35.211v10.482zM272.254 82.136a22.867 22.867 0 0 0-3.103-4.888 19.346 19.346 0 0 0-4.39-3.89 21.547 21.547 0 0 0-5.69-2.574 26.958 26.958 0 0 0-14.052 0 21.273 21.273 0 0 0-5.676 2.573 19.492 19.492 0 0 0-4.373 3.891 22.39 22.39 0 0 0-3.087 4.888 25.653 25.653 0 0 0-1.833 5.547 28.497 28.497 0 0 0-.611 5.868 34.535 34.535 0 0 0 .499 5.885 24.961 24.961 0 0 0 1.607 5.514 21.227 21.227 0 0 0 2.862 4.856 17.17 17.17 0 0 0 4.277 3.858 21.125 21.125 0 0 0 5.836 2.541 31.43 31.43 0 0 0 15.065 0 20.846 20.846 0 0 0 5.836-2.54 17.578 17.578 0 0 0 4.277-3.86 20.973 20.973 0 0 0 2.878-4.855 25.64 25.64 0 0 0 1.624-5.514 33.672 33.672 0 0 0 .514-5.885 28.496 28.496 0 0 0-.61-5.868 25.172 25.172 0 0 0-1.85-5.547Zm-12.508 18.007a13.733 13.733 0 0 1-1.64 4.47 6.844 6.844 0 0 1-2.605 2.54 7.835 7.835 0 0 1-6.913 0 6.627 6.627 0 0 1-2.572-2.54 14.24 14.24 0 0 1-1.609-4.47 33.21 33.21 0 0 1-.562-6.592 33.455 33.455 0 0 1 .562-6.608 14.454 14.454 0 0 1 1.609-4.502 6.85 6.85 0 0 1 2.572-2.588 6.996 6.996 0 0 1 9.517 2.588 13.937 13.937 0 0 1 1.641 4.502 33.529 33.529 0 0 1 .563 6.608 33.284 33.284 0 0 1-.563 6.592ZM317.068 78.519a12.628 12.628 0 0 0-2.7-3.168 15.26 15.26 0 0 0-4.23-2.476 28.035 28.035 0 0 0-5.996-1.592 50.503 50.503 0 0 0-8.024-.562h-17.556v45.467h14.405V100.53l1.994.128q.835.065 1.704.081t1.447.016a40.112 40.112 0 0 0 7.219-.58 23.987 23.987 0 0 0 5.435-1.607 15.29 15.29 0 0 0 3.874-2.412 12.287 12.287 0 0 0 2.524-2.99 11.698 11.698 0 0 0 1.35-3.376 15.938 15.938 0 0 0 .403-3.537 19.411 19.411 0 0 0-.418-4.052 12.259 12.259 0 0 0-1.43-3.681Zm-12.975 10.659a5.55 5.55 0 0 1-1.383 2.283 6.731 6.731 0 0 1-2.54 1.527 11.67 11.67 0 0 1-3.89.563h-3.313V78.116h3.312a13.252 13.252 0 0 1 3.28.386 6.408 6.408 0 0 1 2.62 1.335 6.196 6.196 0 0 1 1.721 2.523 11.165 11.165 0 0 1 .61 3.988 9.324 9.324 0 0 1-.417 2.83ZM322.053 70.721h14.405v45.468h-14.405zM371.62 70.72h-20.13l-11.576 45.468h11.608l2.027-9.678h11.286l2.122 9.678h17.172Zm-16.69 28.265 4.407-21.19h.996l3.795 21.19ZM65.64 0a65.64 65.64 0 1 0 65.641 65.64A65.715 65.715 0 0 0 65.641 0Zm43.268 30.712c-.748 3.017-3.657 6.083-8.295 8.767a74.674 74.674 0 0 0-9.848-23.46 55.989 55.989 0 0 1 18.143 14.693ZM93.652 65.64a101.591 101.591 0 0 1-2.16 21.012 109.762 109.762 0 0 1-20.851 2.77V57.142a92.63 92.63 0 0 0 22.307-3.587 104.447 104.447 0 0 1 .704 12.086Zm-56.024 0a104.427 104.427 0 0 1 .705-12.086 92.632 92.632 0 0 0 22.308 3.587v32.28a109.056 109.056 0 0 1-20.855-2.774 101.596 101.596 0 0 1-2.158-21.007ZM70.64 10.948c9.139 3.43 16.877 16.016 20.612 32.595a80.862 80.862 0 0 1-20.612 3.585Zm-10 0v36.18a80.865 80.865 0 0 1-20.614-3.585c3.735-16.58 11.474-29.165 20.614-32.595Zm0 88.48v20.906c-7.242-2.718-13.603-11.183-17.791-22.832a124.034 124.034 0 0 0 17.79 1.925Zm10 20.906V99.427a124.037 124.037 0 0 0 17.79-1.925c-4.19 11.649-10.55 20.114-17.79 22.832ZM40.516 16.02a74.678 74.678 0 0 0-9.849 23.459c-4.637-2.684-7.546-5.75-8.294-8.767A55.988 55.988 0 0 1 40.516 16.02ZM16.174 40.215a35.16 35.16 0 0 0 12.53 9.615 116.514 116.514 0 0 0 .272 33.464C17.07 78.599 10 71.922 10 65.64a55.279 55.279 0 0 1 6.174-25.426Zm-1.866 46.882a58.166 58.166 0 0 0 6.302 3.485 79.213 79.213 0 0 0 10.827 4.154 72.472 72.472 0 0 0 9.079 20.525 55.97 55.97 0 0 1-26.208-28.164Zm76.457 28.165a72.466 72.466 0 0 0 9.078-20.526 79.21 79.21 0 0 0 10.827-4.154 58.176 58.176 0 0 0 6.303-3.485 55.971 55.971 0 0 1-26.208 28.165Zm15.604-33.708q-1.955.931-4.068 1.759a114.669 114.669 0 0 0 1.351-17.672 115.546 115.546 0 0 0-1.075-15.81 35.16 35.16 0 0 0 12.53-9.616 55.279 55.279 0 0 1 6.174 25.426c0 5.598-5.435 11.399-14.912 15.913Z" />
        </g>
    </g>
</svg>